<svg xmlns="http://www.w3.org/2000/svg" xmlns:xlink="http://www.w3.org/1999/xlink" viewBox="0 0 539.8 127.98"><defs><style>.cls-1{fill:url(#linear-gradient);}.cls-2{fill:#302b4c;}.cls-3{fill:#5d5272;}</style><linearGradient id="linear-gradient" x1="75.33" y1="101.68" x2="0.94" y2="29.68" gradientUnits="userSpaceOnUse"><stop offset="0" stop-color="#302b4c"/><stop offset="0.57" stop-color="#534e86"/><stop offset="1" stop-color="#6a65ad"/></linearGradient></defs><g id="Layer_2" data-name="Layer 2"><g id="Camada_1" data-name="Camada 1"><path class="cls-1" d="M117.13,69.62a26.47,26.47,0,0,0-13.48-22.9l-1.32-.67-.08,0L14.63,1.13A10.09,10.09,0,0,0,10,0,9.82,9.82,0,0,0,0,9.66l14.62,7.48h0L49.51,35l.17.08h0L64.3,42.58h0l18.91,9.68,9.55,4.88,2.7,1.39c.28.14.57.3.84.47a12.28,12.28,0,0,1,6,10.63,12.14,12.14,0,0,1-4.67,9.65,13.06,13.06,0,0,1-2.26,1.46L64.3,96.67V58.58L49.68,51.1v53.06l-.17.09L33.7,112.34a13.33,13.33,0,0,1-13.74-1,12.77,12.77,0,0,1-5.34-10.5V33.15L0,25.66v75.57a26,26,0,0,0,8,18.82A28.45,28.45,0,0,0,27.56,128h.05a28.35,28.35,0,0,0,12.93-3.14l9-4.6.17-.09v.14L64.3,112.8v-.13l38-19.43A26.54,26.54,0,0,0,117,69.63v-.09Z"/><path class="cls-2" d="M164.09,29.14V43.38H186.7v3.3a4.05,4.05,0,0,1-4,4.06H164.09V64.31a4.36,4.36,0,0,1-4.36,4.36H155.4V28.16a6.31,6.31,0,0,1,6.32-6.31h24.33a3.53,3.53,0,0,1,3.53,3.52v3.77Z"/><path class="cls-2" d="M225.76,63.88q-5.41-5.44-5.41-15.61V21.85h4A4.67,4.67,0,0,1,229,26.52V47.93Q229,61.72,241,61.71t11.84-13.78V21.85h3.82a4.74,4.74,0,0,1,4.74,4.73V48.27q0,10.15-5.39,15.61t-15.08,5.45Q231.19,69.33,225.76,63.88Z"/><path class="cls-2" d="M304.89,29.2H289.37V21.85H329.1v3.09a4.26,4.26,0,0,1-4.26,4.26H313.59V63.64a5,5,0,0,1-5,5h-3.67Z"/><path class="cls-2" d="M362.55,63.88q-5.42-5.44-5.42-15.61V21.85h4.66a4,4,0,0,1,4,4V47.93q0,13.78,11.9,13.78t11.84-13.78V21.85h4a4.54,4.54,0,0,1,4.55,4.55V48.27q0,10.15-5.38,15.61t-15.09,5.45Q368,69.33,362.55,63.88Z"/><path class="cls-2" d="M463.68,68.67,454.12,55a16.4,16.4,0,0,1-1.81.07H441.74V68.67h-8.69V21.85h19.26a25.87,25.87,0,0,1,10.6,2,15.43,15.43,0,0,1,6.92,5.75,16.08,16.08,0,0,1,2.41,8.9,16,16,0,0,1-2.57,9.1,15.35,15.35,0,0,1-7.39,5.68l6.61,9.44a3.78,3.78,0,0,1-3.1,6Zm-3.14-37.06c-2-1.6-4.84-2.41-8.63-2.41H441.74V47.86h10.17q5.68,0,8.63-2.44a8.48,8.48,0,0,0,2.94-6.92A8.4,8.4,0,0,0,460.54,31.61Z"/><path class="cls-2" d="M539.8,61.38v2a5.32,5.32,0,0,1-5.32,5.32h-29.8V27.42a5.57,5.57,0,0,1,5.58-5.57h28.6v7.29H513.38V41.31H536v7.16H513.38V61.38Z"/><path class="cls-3" d="M190.66,94.69v15h-1.52v-12l-5.91,10.12h-.75l-5.91-10v12H175v-15h1.31l6.54,11.15,6.46-11.15Z"/><path class="cls-3" d="M208.43,105.72h-8.38l-1.8,4h-1.66l6.88-15H205l6.87,15h-1.67Zm-.58-1.29-3.61-8.08-3.61,8.08Z"/><path class="cls-3" d="M228.12,109.73l-3.44-4.83a11.76,11.76,0,0,1-1.2.06h-4v4.77h-1.59v-15h5.63A6.77,6.77,0,0,1,228,96.07a4.67,4.67,0,0,1,1.63,3.78,4.68,4.68,0,0,1-3.44,4.73l3.68,5.15Zm-1.27-7.11A3.4,3.4,0,0,0,228,99.85,3.45,3.45,0,0,0,226.85,97a5.26,5.26,0,0,0-3.42-1h-4v7.54h4A5.2,5.2,0,0,0,226.85,102.62Z"/><path class="cls-3" d="M241.48,102.66l-3.07,3.12v4h-1.59v-15h1.59v9.09l8.83-9.09h1.83l-6.51,6.81,7,8.23h-1.89Z"/><path class="cls-3" d="M266.17,108.36v1.37H255.53v-15h10.32v1.38h-8.73v5.35h7.78v1.35h-7.78v5.59Z"/><path class="cls-3" d="M276.27,96.07H271V94.69h12.17v1.38h-5.29v13.66h-1.59Z"/><path class="cls-3" d="M289.12,94.69h1.59v15h-1.59Z"/><path class="cls-3" d="M311.62,94.69v15h-1.31l-9.67-12.2v12.2h-1.59v-15h1.31l9.69,12.21V94.69Z"/><path class="cls-3" d="M330.55,102.21h1.52V108a7.26,7.26,0,0,1-2.49,1.42,9.25,9.25,0,0,1-3,.49,8.3,8.3,0,0,1-4.06-1,7.26,7.26,0,0,1-2.84-2.74,8,8,0,0,1,0-7.84,7.33,7.33,0,0,1,2.84-2.74,8.32,8.32,0,0,1,4.08-1,8.92,8.92,0,0,1,3.16.55,6.41,6.41,0,0,1,2.43,1.62l-1,1A6.2,6.2,0,0,0,326.64,96a6.72,6.72,0,0,0-3.3.81A5.9,5.9,0,0,0,321,99a6.18,6.18,0,0,0-.84,3.19,6.09,6.09,0,0,0,3.14,5.42,6.66,6.66,0,0,0,3.29.81,6.53,6.53,0,0,0,3.93-1.16Z"/><path class="cls-3" d="M359.21,96.07a5.16,5.16,0,0,1,0,7.55A6.82,6.82,0,0,1,354.7,105h-4v4.74h-1.59v-15h5.63A6.77,6.77,0,0,1,359.21,96.07Zm-1.14,6.54a3.38,3.38,0,0,0,1.19-2.76A3.45,3.45,0,0,0,358.07,97a5.21,5.21,0,0,0-3.41-1h-4v7.52h4A5.21,5.21,0,0,0,358.07,102.61Z"/><path class="cls-3" d="M376.4,105.72H368l-1.8,4h-1.66l6.88-15H373l6.87,15h-1.67Zm-.58-1.29-3.61-8.08-3.61,8.08Z"/><path class="cls-3" d="M396.08,109.73l-3.43-4.83a11.81,11.81,0,0,1-1.21.06h-4v4.77h-1.59v-15h5.63A6.8,6.8,0,0,1,396,96.07a4.7,4.7,0,0,1,1.63,3.78,4.89,4.89,0,0,1-.89,3,5,5,0,0,1-2.55,1.76l3.67,5.15Zm-1.26-7.11A3.43,3.43,0,0,0,396,99.85,3.48,3.48,0,0,0,394.82,97a5.26,5.26,0,0,0-3.42-1h-4v7.54h4A5.2,5.2,0,0,0,394.82,102.62Z"/><path class="cls-3" d="M414.22,105.72h-8.38l-1.8,4h-1.66l6.88-15h1.57l6.87,15H416Zm-.58-1.29L410,96.35l-3.61,8.08Z"/><path class="cls-3" d="M433.63,109.32a5.91,5.91,0,0,1-2.37-1.41l.62-1.23a5.87,5.87,0,0,0,2.17,1.32,7.89,7.89,0,0,0,2.8.51,5.17,5.17,0,0,0,3-.74,2.31,2.31,0,0,0,1-1.93,1.91,1.91,0,0,0-.55-1.43,3.62,3.62,0,0,0-1.35-.83,19.7,19.7,0,0,0-2.21-.64,23.73,23.73,0,0,1-2.71-.82,4.48,4.48,0,0,1-1.73-1.22,3.21,3.21,0,0,1-.72-2.21,3.72,3.72,0,0,1,.61-2.08,4.16,4.16,0,0,1,1.84-1.49,7.64,7.64,0,0,1,3.1-.56,8.93,8.93,0,0,1,2.52.36,6.92,6.92,0,0,1,2.14,1l-.54,1.26a7.56,7.56,0,0,0-2-.93,7.37,7.37,0,0,0-2.1-.31,4.87,4.87,0,0,0-3,.76,2.38,2.38,0,0,0-1,2,2,2,0,0,0,.55,1.45,3.59,3.59,0,0,0,1.38.83,23,23,0,0,0,2.22.64,23.33,23.33,0,0,1,2.68.8,4.38,4.38,0,0,1,1.72,1.21,3.13,3.13,0,0,1,.71,2.18,3.67,3.67,0,0,1-.61,2.07,4,4,0,0,1-1.88,1.48,7.73,7.73,0,0,1-3.11.55A9.67,9.67,0,0,1,433.63,109.32Z"/><path class="cls-3" d="M458.79,105.72H450.4l-1.8,4h-1.66l6.88-15h1.57l6.88,15h-1.68Zm-.59-1.29-3.61-8.08L451,104.43Z"/><path class="cls-3" d="M469.38,108.19a6.72,6.72,0,0,1-1.63-4.88V94.69h1.58v8.55a5.66,5.66,0,0,0,1.19,3.92,5.22,5.22,0,0,0,6.85,0,5.65,5.65,0,0,0,1.18-3.92V94.69h1.55v8.62a6.76,6.76,0,0,1-1.62,4.88,7,7,0,0,1-9.1,0Zm6.1-17.39h2L474,93.47h-1.5Z"/><path class="cls-3" d="M488.33,94.69h6.12a9,9,0,0,1,4.22,1,7,7,0,0,1,2.83,2.66,8,8,0,0,1,0,7.8,7,7,0,0,1-2.83,2.67,9.08,9.08,0,0,1-4.22,1h-6.12Zm6,13.67a7.21,7.21,0,0,0,3.46-.79,5.67,5.67,0,0,0,2.3-2.17,6.69,6.69,0,0,0,0-6.38,5.73,5.73,0,0,0-2.3-2.17,7.33,7.33,0,0,0-3.46-.78h-4.45v12.29Z"/><path class="cls-3" d="M520.15,108.36v1.37H509.52v-15h10.31v1.38h-8.72v5.35h7.78v1.35h-7.78v5.59Z"/></g></g></svg>